<?xml version="1.0" standalone="no"?>
<!DOCTYPE svg PUBLIC "-//W3C//DTD SVG 20010904//EN"
 "http://www.w3.org/TR/2001/REC-SVG-20010904/DTD/svg10.dtd">
<svg version="1.0" xmlns="http://www.w3.org/2000/svg"
 width="408.000000pt" height="612.000000pt" viewBox="0 0 408.000000 612.000000"
 preserveAspectRatio="xMidYMid meet">

<g transform="translate(0.000000,612.000000) scale(0.100000,-0.100000)"
fill="#000000" stroke="none">
<path d="M1785 5675 c-176 -33 -334 -102 -510 -225 -55 -38 -130 -88 -166
-110 -103 -63 -220 -80 -311 -45 -14 6 -18 2 -18 -19 0 -29 49 -90 91 -112
l29 -14 -78 -78 c-61 -61 -87 -97 -125 -172 -54 -108 -84 -235 -69 -292 l9
-33 7 30 c3 17 18 44 32 60 l25 30 -5 -30 c-3 -16 -11 -55 -17 -85 -11 -55 -7
-104 13 -172 13 -43 22 -42 33 4 7 32 7 31 20 -28 7 -33 36 -121 64 -196 28
-75 51 -143 51 -150 0 -8 -15 -29 -34 -47 -40 -39 -71 -105 -81 -173 -21 -141
83 -316 218 -366 62 -23 155 -29 187 -12 17 9 29 1 82 -53 35 -35 89 -81 121
-102 38 -25 56 -43 52 -53 -3 -7 -5 -15 -5 -17 0 -2 -68 -39 -151 -82 -191
-99 -251 -150 -308 -265 -22 -46 -81 -207 -131 -358 -51 -154 -102 -291 -116
-312 -22 -31 -25 -46 -23 -96 3 -38 -1 -65 -9 -75 -7 -9 -15 -42 -18 -74 -3
-32 -7 -73 -9 -90 -3 -25 3 -41 22 -63 l25 -31 -22 -141 c-12 -77 -24 -146
-27 -153 -2 -7 -56 -44 -120 -81 -64 -38 -138 -89 -164 -114 -47 -44 -49 -48
-49 -102 0 -51 4 -60 34 -92 38 -41 143 -82 184 -71 13 3 51 24 83 46 85 58
88 58 82 11 -5 -35 -2 -42 21 -57 43 -28 93 -7 179 75 l72 68 -1 79 c-1 43 -3
110 -5 148 -4 62 1 86 40 202 52 157 71 176 71 70 1 -126 15 -206 43 -236 13
-14 27 -38 31 -52 10 -45 70 -122 120 -157 65 -43 140 -64 245 -66 67 -2 94
-7 121 -23 37 -22 189 -73 218 -73 9 0 29 -15 44 -33 39 -49 89 -70 147 -62
l47 6 83 -92 c62 -68 93 -113 121 -173 40 -89 79 -130 161 -171 157 -80 304
-67 391 35 42 48 58 98 58 178 0 51 -6 73 -40 137 -44 87 -108 166 -169 210
-23 17 -53 50 -65 75 -52 98 -151 178 -246 197 -17 3 -29 9 -28 14 3 7 242
129 253 129 2 0 3 -22 2 -48 -1 -28 3 -56 11 -64 7 -8 38 -20 69 -27 45 -9 61
-8 85 3 26 13 29 13 43 -7 8 -12 15 -26 15 -32 0 -29 24 -88 46 -115 17 -20
24 -36 19 -48 -13 -32 -33 -199 -27 -228 3 -16 12 -38 20 -49 l14 -20 -7 20
c-4 11 -10 32 -13 48 -4 27 -4 27 24 13 16 -8 65 -24 109 -36 44 -11 123 -39
175 -60 183 -75 351 -101 470 -74 55 12 55 12 -35 7 -124 -7 -322 24 -357 56
-11 10 29 80 68 121 19 20 34 41 34 47 0 12 -38 43 -52 43 -13 0 -99 -94 -124
-137 -24 -40 -33 -44 -66 -26 -17 9 45 104 98 151 31 28 54 55 50 60 -3 5 -19
15 -36 22 -29 12 -35 11 -73 -16 -43 -31 -104 -119 -113 -165 l-6 -26 -46 14
c-99 30 -112 39 -112 79 0 20 8 68 17 108 23 99 38 117 63 71 16 -30 42 -32
78 -6 45 31 108 60 153 70 49 11 65 6 48 -15 -9 -11 -9 -21 0 -40 11 -24 15
-26 56 -20 34 6 45 4 52 -9 8 -14 12 -14 44 0 26 12 28 15 8 11 -14 -3 -34 0
-44 7 -13 10 -27 11 -57 3 -32 -8 -41 -8 -49 4 -17 28 -4 45 51 63 87 29 147
33 170 12 27 -25 25 -45 -4 -45 -19 0 -24 -5 -23 -20 2 -24 10 -25 32 -4 10
11 20 13 28 7 7 -6 20 -13 30 -16 15 -6 16 -4 6 15 -7 12 -22 33 -35 47 -13
14 -37 51 -54 83 -18 34 -43 64 -59 72 -24 13 -27 19 -23 51 4 30 -1 42 -26
68 -34 36 -55 77 -146 279 -35 79 -81 172 -101 206 l-36 62 27 67 c22 56 25
76 20 121 -10 88 -64 174 -128 208 -19 10 -28 22 -28 39 0 34 -36 70 -100 103
-44 22 -68 45 -127 122 -121 157 -235 274 -328 336 l-85 56 97 49 c180 90 303
203 338 310 10 30 33 71 51 91 101 113 144 319 93 438 -25 57 -26 51 62 272
33 81 62 161 66 179 6 32 6 32 15 8 12 -30 20 -17 38 58 12 54 7 154 -12 202
-7 21 -7 22 6 12 8 -7 20 -28 27 -48 8 -25 14 -32 22 -24 15 15 -5 150 -34
221 -31 77 -96 166 -171 235 -35 32 -71 72 -81 89 -66 109 -210 195 -331 196
-39 1 -43 4 -76 56 -60 95 -155 158 -295 196 -96 26 -240 31 -340 13z m510
-796 c4 -6 13 -8 21 -5 7 3 16 1 19 -4 3 -6 27 -7 53 -4 66 8 123 -3 156 -29
25 -20 31 -35 42 -103 19 -119 48 -186 105 -244 27 -27 54 -50 59 -50 5 0 25
-17 45 -37 l36 -38 -4 -115 c-3 -63 -17 -173 -31 -244 -14 -71 -30 -177 -36
-235 -21 -211 -30 -255 -60 -318 -87 -178 -404 -343 -658 -343 -293 0 -679
160 -818 340 -45 57 -46 58 -65 39 -22 -22 -108 -26 -169 -8 -148 45 -250 251
-195 395 22 57 77 114 111 114 51 0 109 -47 172 -141 32 -47 48 -59 83 -59 23
0 23 10 4 75 -27 87 -36 184 -25 265 6 41 13 105 17 142 4 50 11 72 26 85 11
10 17 12 13 5 -15 -25 151 -60 189 -39 18 11 17 12 -15 18 -31 6 -29 7 15 6
28 0 53 -5 58 -11 5 -8 10 -7 16 3 5 7 14 10 20 7 6 -4 18 0 27 8 20 20 38 21
30 1 -3 -9 0 -15 8 -15 23 0 76 22 76 31 0 4 7 6 14 3 8 -3 49 12 90 34 45 23
76 34 76 27 0 -7 -19 -33 -41 -59 l-42 -47 76 3 c41 1 73 6 71 10 -3 4 6 8 20
8 27 0 79 43 90 74 3 10 9 16 12 13 3 -3 -6 -31 -20 -63 -15 -31 -24 -59 -22
-62 10 -10 114 101 141 150 29 53 54 148 55 206 0 51 28 125 61 166 23 27 38
36 62 36 24 0 28 3 17 10 -9 6 -10 10 -3 10 6 0 15 -5 18 -11z m-571 -425 c3
-8 2 -12 -4 -9 -6 3 -10 10 -10 16 0 14 7 11 14 -7z m-394 -49 c-7 -8 -20 -15
-29 -15 -11 0 -8 5 9 14 33 19 35 19 20 1z m277 -21 c-3 -3 -12 -4 -19 -1 -8
3 -5 6 6 6 11 1 17 -2 13 -5z m1268 -444 c2 -23 0 -38 -6 -35 -5 4 -9 11 -9
17 0 6 -6 19 -14 27 -10 12 -11 23 -4 41 8 22 10 23 19 8 5 -10 11 -36 14 -58z
m-31 -189 c-24 -78 -54 -142 -65 -135 -17 10 2 157 25 191 45 69 69 37 40 -56z
m-876 -834 c-6 -12 -22 -40 -36 -62 l-25 -39 -28 34 c-37 44 -36 50 5 50 23 0
42 8 57 24 28 29 44 24 27 -7z m296 -459 c-44 -44 -58 -43 -20 2 l26 31 -26
47 -26 47 41 -44 42 -44 -37 -39z m-107 74 c-28 -29 -35 -56 -17 -67 5 -3 15
-15 21 -26 10 -20 9 -20 -14 -5 -13 9 -30 28 -37 42 -13 24 -12 27 25 59 47
39 60 37 22 -3z m278 -237 c35 -22 55 -42 55 -53 0 -11 11 -36 25 -56 14 -20
25 -41 25 -45 0 -7 -233 -141 -245 -141 -4 0 -17 118 -17 161 0 35 28 110 58
157 18 27 24 26 99 -23z m502 -21 c51 -30 83 -72 83 -112 0 -16 -10 -74 -22
-128 -23 -107 -25 -130 -13 -274 8 -107 -3 -168 -35 -188 -18 -11 -20 -10 -20
18 0 16 -4 30 -10 30 -5 0 -10 -17 -10 -37 -1 -31 -38 -126 -40 -100 0 4 -9 3
-21 -4 -20 -10 -21 -9 -14 33 3 23 9 56 12 72 10 54 -14 17 -26 -41 -7 -32
-20 -72 -28 -90 -13 -28 -18 -31 -39 -23 -13 5 -24 7 -24 3 0 -3 -2 -4 -5 -1
-3 2 -1 18 4 34 13 37 21 155 11 149 -4 -2 -10 -27 -14 -55 -13 -98 -38 -129
-77 -94 -19 17 -20 28 -17 131 3 113 -10 142 -20 43 -2 -28 -9 -53 -15 -57 -6
-3 -7 -1 -3 6 9 14 -2 53 -14 46 -4 -3 -11 2 -14 11 -4 10 -2 13 6 8 7 -5 9
-2 6 7 -12 32 14 135 50 199 55 96 60 116 61 217 1 101 10 132 56 181 52 57
112 62 192 16z m-2197 -546 c0 -6 7 -8 15 -4 25 9 65 -11 65 -33 0 -15 5 -19
18 -14 9 3 14 3 10 -2 -10 -11 36 -34 84 -41 34 -6 39 -10 34 -28 -45 -161
-56 -215 -47 -239 17 -45 24 -143 12 -179 -11 -33 -80 -108 -131 -142 -29 -19
-71 -21 -88 -4 -17 17 -16 22 23 68 41 49 46 75 13 64 -31 -9 -103 -50 -159
-90 -59 -43 -90 -55 -112 -43 -9 6 -17 14 -17 19 0 5 27 39 60 76 33 36 60 70
60 76 0 13 -103 -76 -138 -119 -19 -24 -32 -32 -44 -28 -44 17 -27 60 55 138
72 67 44 58 -41 -13 -40 -33 -74 -60 -76 -60 -3 0 -3 9 -1 21 6 32 21 48 105
118 l25 21 -33 -11 c-18 -6 -49 -26 -68 -44 -22 -21 -34 -27 -34 -18 0 30 108
112 255 193 33 19 63 38 66 42 3 5 14 57 24 116 25 156 33 182 50 176 8 -4 15
-11 15 -16z m120 -28 c12 -8 11 -10 -7 -10 -13 0 -23 5 -23 10 0 13 11 13 30
0z m2339 -316 c-48 -35 -59 -53 -59 -95 0 -35 -3 -39 -56 -68 -31 -17 -60 -28
-64 -26 -4 3 -4 24 0 47 5 24 6 47 3 52 -4 5 0 6 7 1 10 -6 12 -4 7 9 -4 10
-3 15 3 11 6 -3 10 -2 10 4 0 5 9 13 20 16 12 4 17 11 14 18 -4 7 -4 9 1 5 9
-9 46 10 61 31 7 9 28 17 49 18 l37 2 -33 -25z m177 11 c24 -10 39 -25 50 -51
8 -20 12 -40 7 -44 -16 -13 -129 -33 -200 -35 l-73 -2 0 32 c0 36 36 75 90 99
45 19 82 20 126 1z m-966 -71 c65 -30 129 -81 152 -122 18 -29 17 -30 -7 -46
-30 -20 -32 -37 -6 -60 15 -14 24 -15 40 -7 30 16 40 14 53 -14 9 -20 8 -28
-5 -43 -16 -17 -16 -20 6 -40 22 -20 24 -21 46 -5 20 14 22 18 9 27 -8 6 -23
24 -34 40 -18 29 -18 29 0 19 47 -26 139 -132 172 -197 28 -58 34 -79 34 -135
0 -86 -14 -134 -52 -177 -39 -44 -68 -59 -142 -73 -115 -21 -263 37 -332 130
-41 56 -45 82 -7 48 22 -20 21 -16 -7 19 l-33 42 21 23 c25 27 28 55 9 81 -13
18 -15 17 -36 -13 -26 -36 -37 -39 -46 -10 -4 13 -1 27 10 39 16 18 17 21 1
45 -20 30 -33 31 -62 4 l-21 -20 -33 40 c-26 34 -29 41 -14 41 17 0 17 1 0 13
-16 11 -16 15 -3 25 12 11 21 9 49 -8 39 -24 71 -26 88 -5 14 17 29 19 49 6
12 -8 12 -14 1 -41 -10 -25 -10 -33 0 -43 10 -10 11 -8 6 8 -7 26 38 105 96
168 24 26 42 47 38 47 -3 0 -11 -5 -18 -12 -20 -20 -39 6 -22 29 7 10 -27 -24
-76 -75 -49 -51 -95 -93 -103 -92 -7 0 -29 9 -48 21 l-34 21 56 59 c49 51 69
84 100 164 4 11 7 36 6 55 l-2 35 20 -25 c20 -24 25 -36 22 -52 0 -5 6 -8 15
-8 9 0 12 5 8 13 -4 6 -18 29 -31 50 -21 33 -21 37 -6 37 10 0 43 -12 73 -26z
m581 -117 c-10 -9 -11 -8 -5 6 3 10 9 15 12 12 3 -3 0 -11 -7 -18z m-588 -103
c6 -6 -6 -25 -52 -84 -17 -21 -21 -22 -36 -10 -14 12 -12 17 27 57 43 44 50
48 61 37z"/>
<path d="M1405 4320 c-3 -6 1 -7 9 -4 18 7 21 14 7 14 -6 0 -13 -4 -16 -10z"/>
<path d="M1478 4323 c7 -3 16 -2 19 1 4 3 -2 6 -13 5 -11 0 -14 -3 -6 -6z"/>
<path d="M1404 4292 c-35 -23 -94 -91 -94 -109 0 -7 6 -13 13 -13 131 -2 264
-22 492 -75 80 -19 104 -10 106 38 2 31 2 31 6 4 3 -16 -3 -39 -12 -54 -19
-28 -12 -44 10 -22 34 34 35 129 2 116 -8 -3 -18 3 -25 13 -23 38 -253 107
-382 116 -73 5 -89 3 -116 -14z"/>
<path d="M2522 4290 c-159 -42 -227 -88 -239 -165 -8 -48 12 -53 89 -22 93 37
303 87 364 87 39 0 54 4 54 14 0 15 -47 87 -64 98 -20 14 -130 7 -204 -12z"/>
<path d="M2396 4040 c-27 -11 -62 -32 -78 -46 -29 -29 -37 -50 -15 -41 9 3 12
-16 12 -77 0 -97 15 -131 67 -159 52 -26 99 -10 136 46 24 36 27 50 27 129 l0
88 53 0 c75 0 97 -23 89 -98 l-6 -56 25 41 c13 23 27 62 30 86 6 41 4 47 -20
62 -23 15 -46 17 -177 13 -146 -4 -165 3 -59 22 l45 8 -40 0 c-22 1 -62 -8
-89 -18z m4 -120 c0 -11 -6 -20 -13 -20 -19 0 -27 10 -20 26 8 21 33 17 33 -6z"/>
<path d="M1645 4039 c45 -5 99 -15 120 -24 l40 -15 -50 8 c-74 11 -345 5 -394
-8 -53 -14 -67 -40 -52 -97 6 -22 25 -58 43 -79 17 -22 28 -30 24 -19 -4 10
-10 39 -13 62 -7 52 15 83 59 83 25 0 27 -2 18 -19 -43 -82 44 -241 131 -241
42 0 101 42 126 89 25 47 31 127 13 162 -10 18 -7 19 75 19 47 0 85 4 85 9 0
4 -17 20 -37 34 -43 29 -130 48 -212 46 -52 -2 -51 -2 24 -10z m-90 -124 c0
-11 -8 -21 -17 -23 -14 -3 -18 3 -18 23 0 20 4 26 18 23 9 -2 17 -12 17 -23z"/>
<path d="M867 3892 c-33 -36 -52 -130 -24 -119 57 21 57 21 57 -28 0 -52 18
-103 46 -126 20 -17 111 -49 138 -49 23 0 19 31 -8 65 -20 25 -23 38 -19 76 7
60 -15 107 -75 159 -49 44 -88 51 -115 22z"/>
<path d="M2193 3575 c-6 -18 1 -28 22 -31 15 -2 28 23 19 37 -9 14 -34 10 -41
-6z"/>
<path d="M2055 3383 c-43 -5 -116 -33 -111 -42 3 -4 41 2 85 13 67 17 87 19
133 9 59 -12 80 -7 53 14 -18 12 -89 15 -160 6z"/>
<path d="M767 1713 c-3 -4 6 -16 19 -26 29 -22 31 -18 5 12 -11 12 -21 18 -24
14z"/>
<path d="M2450 1034 c0 -4 8 -13 17 -20 17 -12 17 -14 -6 -46 l-24 -33 31 29
c37 34 39 44 15 62 -20 15 -33 18 -33 8z"/>
<path d="M2538 1023 c7 -3 16 -2 19 1 4 3 -2 6 -13 5 -11 0 -14 -3 -6 -6z"/>
<path d="M2549 934 c-10 -12 -9 -13 4 -8 8 3 27 -2 42 -12 14 -9 27 -15 29
-13 2 2 -11 14 -30 26 -28 18 -35 19 -45 7z"/>
<path d="M2354 918 c-10 -13 -12 -18 -5 -11 26 22 51 -2 44 -42 -7 -43 11 -69
43 -61 14 4 24 1 27 -6 2 -7 3 -4 1 8 -2 11 10 40 27 65 l31 44 -32 -35 c-18
-19 -38 -43 -45 -54 -19 -26 -45 -13 -45 21 0 16 8 39 17 52 9 14 11 21 4 17
-7 -5 -20 -1 -30 8 -16 15 -19 14 -37 -6z"/>
<path d="M2705 870 c27 -12 43 -12 25 0 -8 5 -22 9 -30 9 -10 0 -8 -3 5 -9z"/>
<path d="M2750 856 c0 -2 7 -7 16 -10 8 -3 12 -2 9 4 -6 10 -25 14 -25 6z"/>
<path d="M2473 705 c0 -33 2 -45 4 -27 2 18 2 45 0 60 -2 15 -4 0 -4 -33z"/>
<path d="M2778 665 c-17 -28 -45 -55 -80 -74 -29 -17 -48 -31 -42 -31 24 0
105 62 130 100 15 22 25 42 23 44 -2 2 -16 -16 -31 -39z"/>
<path d="M2388 629 c38 -44 107 -72 186 -75 l71 -3 -80 12 c-82 13 -131 33
-175 71 l-25 21 23 -26z"/>
<path d="M3596 1145 c5 -13 0 -15 -35 -9 -25 4 -41 3 -41 -3 0 -20 25 -30 61
-26 30 4 36 8 32 24 -3 11 -9 22 -14 25 -5 3 -6 -2 -3 -11z"/>
<path d="M3341 1129 c-1 -21 24 -43 41 -36 9 4 8 6 -3 6 -9 1 -21 11 -27 24
-8 16 -11 17 -11 6z"/>
<path d="M3425 1110 c-17 -6 -16 -8 8 -14 15 -3 25 -11 22 -16 -3 -5 9 -4 27
2 39 13 53 23 21 16 -12 -3 -30 0 -40 7 -10 7 -27 9 -38 5z"/>
<path d="M3665 1088 c4 -11 0 -18 -14 -23 -12 -3 -24 -4 -29 -1 -4 2 -14 1
-21 -3 -7 -5 7 -10 38 -14 54 -6 131 -41 179 -82 45 -38 70 -120 53 -176 -16
-54 -41 -74 -120 -99 -146 -46 -325 -31 -504 41 -90 37 -323 119 -336 119 -24
0 38 -27 159 -70 80 -29 190 -69 245 -89 99 -36 101 -36 255 -35 122 0 165 4
199 17 106 41 144 104 122 200 -15 64 -50 108 -113 142 -29 15 -68 42 -86 59
-18 17 -30 24 -27 14z"/>
<path d="M3501 1021 c-8 -5 -9 -11 -3 -15 5 -3 12 1 16 9 6 17 6 18 -13 6z"/>
<path d="M3522 940 c0 -14 2 -19 5 -12 2 6 2 18 0 25 -3 6 -5 1 -5 -13z"/>
<path d="M3720 800 c-8 -5 -10 -10 -5 -10 6 0 17 5 25 10 8 5 11 10 5 10 -5 0
-17 -5 -25 -10z"/>
</g>
</svg>
